<?xml version="1.0" encoding="utf-8"?>
<!-- Svg Vector Icons : http://www.onlinewebfonts.com/icon -->
<!DOCTYPE svg PUBLIC "-//W3C//DTD SVG 1.1//EN" "http://www.w3.org/Graphics/SVG/1.1/DTD/svg11.dtd">
<svg version="1.1" xmlns="http://www.w3.org/2000/svg" xmlns:xlink="http://www.w3.org/1999/xlink" x="0px" y="0px" viewBox="0 0 1000 1000" enable-background="new 0 0 1000 1000" xml:space="preserve">
<metadata> Svg Vector Icons : http://www.onlinewebfonts.com/icon </metadata>
<g><g transform="translate(0.000000,512.000000) scale(0.100000,-0.100000)"><path d="M4645.5,5016.5c-30.7-3.8-140-17.3-239.8-28.8c-573.5-65.2-1239.2-280.1-1751.3-565.9C1256,3639.2,350.6,2311.8,124.3,712c-36.4-260.9-30.7-987.9,9.6-1252.6C300.7-1633.9,776.5-2583.5,1538-3345c761.5-761.5,1707.2-1235.3,2804.4-1404.1c287.7-44.1,1028.2-44.1,1315.9,0c1099.1,168.8,2039.1,640.7,2804.4,1404.1c763.5,765.4,1235.3,1705.3,1404.2,2804.4c44.1,287.7,44.1,1028.2,0,1315.9c-168.8,1095.3-642.6,2044.8-1400.3,2800.6C7701.2,4339.4,6742.1,4820.9,5667.9,4982C5479.9,5008.9,4768.3,5033.8,4645.5,5016.5z M5393.6,4682.8c619.6-57.5,1101.1-191.8,1649.7-460.4c1172-571.6,2058.3-1655.4,2384.3-2915.7c412.4-1594-15.3-3237.9-1145.2-4400.4C7716.6-3673,6951.2-4118,6180.1-4313.7c-671.4-168.8-1294.8-195.7-1966.2-84.4C2779.1-4158.3,1530.3-3228,895.4-1925.5c-157.3,318.4-249.4,565.9-324.2,859.4c-203.3,792.2-203.3,1574.9,0,2367.1c147.7,577.4,458.5,1200.8,838.3,1682.3c136.2,174.6,550.5,588.9,725.1,725.1c351,278.1,855.5,560.1,1279.4,715.5C4018.2,4644.4,4754.8,4742.2,5393.6,4682.8z"/><path d="M4693.5,4362.4c-416.3-40.3-700.2-99.7-1035.8-211c-636.9-211-1200.8-556.3-1666.9-1024.3C989.4,2125.8,552,683.3,830.2-707.4C958.7-1352,1286.7-2055.9,1687.6-2547c740.4-907.3,1803.1-1471.3,2977.1-1576.8c564-49.9,1244.9,42.2,1791.6,243.6c872.8,322.3,1576.8,878.6,2098.5,1653.5c132.4,195.7,347.2,627.3,443.1,888.2c397.1,1080,329.9,2257.7-186.1,3324.3c-418.2,861.3-1080,1525-1937.4,1939.3c-494.9,239.8-997.5,383.7-1509.6,429.7C5157.7,4373.9,4843.1,4377.8,4693.5,4362.4z M4827.7,2735.8v-1314l-51.8-11.5c-30.7-5.8-105.5-26.9-166.9-48c-63.3-19.2-117-34.5-118.9-30.7c-1.9,1.9-299.2,514.1-657.9,1135.6L3178.1,3599l188,90.2c343.4,166.9,830.6,299.2,1250.7,337.6c99.8,9.6,188,19.2,197.6,21.1C4822,4047.8,4827.7,3458.9,4827.7,2735.8z M5583.5,3999.9c282-38.4,608.1-124.7,874.7-232.1c324.2-128.5,368.3-153.5,347.2-193.7c-24.9-48-1291-2238.6-1294.8-2242.4c-1.9-3.8-55.6,11.5-118.9,30.7c-61.4,21.1-136.2,42.2-165,48l-53.7,11.5v1312.1V4044l101.7-7.7C5328.4,4032.5,5468.4,4015.2,5583.5,3999.9z M4198.6,1172.4c1.9-5.8-53.7-65.2-122.8-136.2l-124.7-124.7l-353,203.3c-193.7,113.2-704,408.6-1133.7,656l-782.6,450.8l115.1,161.1c253.2,356.8,581.2,684.8,938,938l159.2,115.1L3546.4,2308C3905.1,1688.4,4198.6,1178.2,4198.6,1172.4z M7350.2,3259.4c117-84.4,306.9-251.3,423.9-368.3c216.8-218.7,531.3-615.8,521.8-659.9c-3.8-19.2-2194.4-1302.5-2240.5-1312.1c-5.8-1.9-65.2,53.7-136.2,122.8l-124.7,124.7l203.3,353c113.2,193.7,404.7,700.1,650.3,1126c245.5,423.9,456.5,771.1,468,771.1C7129.6,3416.7,7235.1,3345.7,7350.2,3259.4z M2679.3,1268.3c606.2-349.1,1104.9-638.8,1106.8-640.7c3.8-1.9-11.5-55.6-30.7-118.9c-21.1-61.4-42.2-136.2-48-165L3696,290H2383.9h-1314l9.6,111.3c44.1,502.6,161.1,953.4,362.5,1390.7c57.5,124.7,72.9,145.8,101.7,130.4C1561,1912.8,2073.2,1619.4,2679.3,1268.3z M8604.7,1688.4c163-385.6,272.4-807.6,299.2-1158.6c5.8-84.4,15.3-172.6,21.1-195.7l7.7-44.1h-1314h-1314l-11.5,53.7c-5.8,28.8-26.9,103.6-47.9,165c-19.2,63.3-34.6,117-30.7,118.9c28.8,28.8,2269.2,1308.2,2278.8,1300.5C8501.1,1924.4,8551,1815,8604.7,1688.4z M5330.3,1040.1c195.7-67.1,356.8-193.7,479.6-372.1c124.7-182.2,155.4-295.4,155.4-550.5c0-255.1-30.7-368.3-155.4-550.5c-120.8-176.5-280.1-301.1-479.6-374.1c-157.3-57.5-502.6-57.5-659.9,0c-199.5,72.9-358.7,197.6-479.6,374.1c-124.7,182.2-155.4,295.4-155.4,550.5c0,255.1,30.7,368.3,155.4,550.5c149.6,218.7,347.2,351,608.1,408.6C4919.8,1103.4,5205.6,1084.2,5330.3,1040.1z M3707.5-107c5.8-30.7,26.9-105.5,48-166.9c19.2-63.3,34.5-115.1,30.7-118.9c-1.9-1.9-477.6-278.1-1058.9-611.9c-579.3-335.7-1091.5-631.1-1135.6-656l-80.6-46l-36.4,72.9c-199.5,393.2-354.9,974.5-393.2,1478.9l-7.7,99.8h1310.2H3696L3707.5-107z M8919.3-155c-40.3-512.1-188-1070.4-385.5-1448.3L8482-1703l-1112.6,642.6C6757.5-707.4,6245.3-412,6231.9-402.4c-17.3,9.6-15.3,38.4,13.4,126.6c21.1,63.3,42.2,138.1,47.9,168.8l11.5,51.8h1312.1H8927L8919.3-155z M4198.6-937.6c-9.6-46-1292.9-2236.6-1312.1-2240.5c-46-7.7-443.1,305-659.9,521.8c-216.8,216.8-529.4,613.8-521.7,659.9c3.8,13.4,510.2,316.5,1126,673.3l1120.2,646.4l124.7-124.7C4144.8-872.4,4200.5-931.9,4198.6-937.6z M7256.2-1373.1c922.7-531.3,1055-613.8,1039.7-644.5c-55.6-107.4-341.4-456.5-523.7-636.9c-182.2-182.2-529.4-468-636.9-523.7c-30.7-15.3-118.9,126.6-686.7,1114.5L5794.5-931.9l126.6,128.5l124.7,128.5l76.7-44.1C6164.7-743.9,6675-1039.3,7256.2-1373.1z M4626.3-1135.2c53.7-15.3,118.9-34.5,149.6-40.3l51.8-11.5v-1312.1v-1310.2l-99.8,7.7c-504.5,38.4-1085.7,193.7-1478.9,393.2l-72.9,36.4l34.5,61.4c19.2,34.5,316.5,546.7,657.9,1141.3c343.4,592.7,631.1,1076.1,642.6,1072.3C4520.8-1100.7,4574.5-1117.9,4626.3-1135.2z M6164.7-2226.7l656-1137.5L6721-3416c-377.9-197.6-936.1-345.3-1446.3-385.6l-101.7-7.7v1310.2V-1187l53.7,11.5c28.8,5.8,99.8,26.8,157.3,46c57.5,19.2,109.3,36.5,115.1,36.5C5504.9-1091.1,5804.1-1603.3,6164.7-2226.7z"/><path d="M4770.2,727.4c-147.7-57.5-324.2-235.9-379.8-385.6c-92.1-245.5-36.5-483.4,157.3-677.1c140-138.1,276.2-199.5,452.7-199.5c176.5,0,312.7,61.4,452.7,199.5c138.1,140,199.5,276.2,199.5,452.7c0,176.5-61.4,312.7-199.5,452.7C5259.3,763.8,5013.8,821.4,4770.2,727.4z M5117.4,424.3c149.6-42.2,237.8-224.4,193.7-397.1c-30.7-117-103.6-189.9-218.7-220.6c-189.9-48-379.8,59.5-408.6,232.1C4637.8,316.9,4841.2,501,5117.4,424.3z"/></g></g>
</svg>